<?xml version="1.0" encoding="UTF-8" standalone="no"?>
<!-- Generator: Adobe Illustrator 28.2.0, SVG Export Plug-In . SVG Version: 6.00 Build 0)  -->

<svg
   version="1.1"
   id="黑白logo_xA0_图像_00000145767290240908918450000004758401117528054442_"
   x="0px"
   y="0px"
   viewBox="0 0 439.4 439.7"
   style="enable-background:new 0 0 439.4 439.7;"
   xml:space="preserve"
   sodipodi:docname="logo.svg"
   inkscape:version="1.4 (86a8ad7, 2024-10-11)"
   xmlns:inkscape="http://www.inkscape.org/namespaces/inkscape"
   xmlns:sodipodi="http://sodipodi.sourceforge.net/DTD/sodipodi-0.dtd"
   xmlns="http://www.w3.org/2000/svg"
   xmlns:svg="http://www.w3.org/2000/svg"><defs
   id="defs6" /><sodipodi:namedview
   id="namedview6"
   pagecolor="#ffffff"
   bordercolor="#000000"
   borderopacity="0.25"
   inkscape:showpageshadow="2"
   inkscape:pageopacity="0.0"
   inkscape:pagecheckerboard="0"
   inkscape:deskcolor="#d1d1d1"
   inkscape:zoom="1.5192176"
   inkscape:cx="220.17912"
   inkscape:cy="140.86198"
   inkscape:window-width="1536"
   inkscape:window-height="890"
   inkscape:window-x="-6"
   inkscape:window-y="-6"
   inkscape:window-maximized="1"
   inkscape:current-layer="黑白logo_xA0_图像_00000145767290240908918450000004758401117528054442_" />
<g
   id="g6">
	<path
   d="M73,167.7c-0.4-1.8-0.6-3.6-1.2-5.2c-0.7-2-1.1-4-0.7-6.1c0.6-3.3,1.2-6.5,1.9-9.8c0-0.2,0.1-0.5,0-0.7   c-0.4-0.9,0.2-1.3,0.8-1.8c2.6-1.9,5.4-2.9,8.6-3.3c2.3-0.3,4.3,0.3,6.1,1.6c0.5,0.4,0.9,0.9,1.5,1.6c0.3-0.7,0.5-1.2,0.6-1.8   c1.3-4.2,2.5-8.5,3.9-12.7c1.1-3.1,2.6-6,5.6-7.7c1.6-0.9,3.1-1.9,4.6-3c1-0.7,1.9-0.8,2.9-0.3c1.3,0.6,2.5,1.4,3.7,2.2   c1.2,0.7,2.3,1.5,3.6,2.3c0.9-2.2,1.8-4.2,2.6-6.3c1.4-3.5,2.9-7,4.2-10.6c0.6-1.6,0.9-3.3,1.1-5c0.3-2.9,2.1-4.3,4.6-4.9   c2.8-0.6,5.7-0.9,8.6-1.3c0.6-0.1,1.4,0.1,1.7,0.5c1.6,2.1,3.2,4.2,4.7,6.4c0.9,1.4,1.1,3.1,1.2,4.8c0.1,2.1,0.3,4.3,0.5,6.5   c1.7-0.4,3.4-0.9,5.1-1.3c4-0.8,8-1.5,12-2.1c2.5-0.4,5.1-0.5,7.7-0.7c0.3,0,0.8-0.1,0.9,0.1c1.5,1.5,3.6,1.3,5.4,1.5   c1.9,0.2,2.9,1.1,3.4,2.9c0.7,2.5,1.9,4.9,1.9,7.7c-0.1,2.9-1.4,5.3-2.6,7.7c-0.4,0.7-0.6,1.5-1,2.4c7.2,0,8,5.1,8.8,10.4   c2-1.4,3.9-2.7,5.8-4c4.4-3.1,8.8-6.2,13.2-9.3c4.5-3.2,9.1-6.3,13.6-9.5c1.1-0.8,1.8-0.8,2.9,0c8.3,5.9,16.6,11.6,24.8,17.5   c3,2.1,6.1,4.3,9.1,6.4c0.2,0.2,0.5,0.3,0.9,0.5c0.2-1.5,0.3-2.9,0.5-4.3c0.4-2.8,1.5-5.3,4-6.7c1.2-0.7,2.7-0.8,4.3-1.2   c-0.2-0.6-0.5-1.3-0.8-2c-1.4-2.7-2.9-5.3-2.6-8.5c0.3-3.1,1.5-6,2.7-8.8c0.1-0.3,0.6-0.6,1-0.6c1.6-0.3,3.3-0.5,4.9-0.7   c0.2,0,0.4-0.1,0.5-0.2c1.7-1.6,3.7-1.2,5.7-1c3.1,0.3,6.1,0.8,9.1,1.4c4,0.8,7.9,1.7,11.9,2.6c0.2,0,0.3,0,0.6,0.1   c0.2-2.2,0.5-4.3,0.5-6.4c0-3.3,1.4-5.9,3.3-8.3c0.7-0.9,1.4-1.7,2.1-2.6c0.5-0.7,1.1-1.1,2-0.9c2.9,0.4,5.8,0.7,8.7,1.3   c2.7,0.6,4.4,2.2,4.6,5.1c0.4,3.9,1.8,7.5,3.4,11.1c1.4,3.3,2.7,6.6,4.1,9.9c0.1,0.1,0.2,0.3,0.3,0.5c1-0.6,1.9-1.1,2.8-1.7   c1.3-0.8,2.6-1.7,3.9-2.5c1.2-0.7,2.5-0.7,3.7,0.2c1,0.8,2.1,1.6,3.3,2.2c4,2.1,5.9,5.6,7.1,9.8c1.2,4.3,2.7,8.6,4,12.7   c1.5-0.9,2.8-2,4.2-2.5c3.5-1.1,6.8,0,10,1.5c0.3,0.1,0.5,0.3,0.7,0.4c1.2,0.8,2.3,1.2,2.3,3.2c0,2.2,0.9,4.5,1.4,6.7   c0.6,3.2,1.1,6.4-0.4,9.7c-0.6,1.4-0.6,3.1-1,4.9c0.9-0.2,1.8-0.2,2.6-0.5c2-0.5,4-1,5.9-1.6c1-0.3,1.4,0.3,1.8,0.9   c2.5,3.4,4.2,7.1,5.8,10.9c1.3,3.1,2,6.3,1.9,9.7c0,0.4,0.3,1,0.7,1.2c3.9,2.2,7.8,4.4,11.7,6.6c4.7,2.7,9.4,5.4,14.1,8   c3.6,2,7.2,4.1,10.8,6.1c2.5,1.4,4.5,3.4,6.4,5.4c0.8,0.9,0.2,1.7-0.4,2.4c-0.6,0.7-1.3,1.3-1.9,2c-7.4,7.5-14.7,15-22.2,22.4   c-6.5,6.4-13,12.7-19.6,19.1c-1.8,1.8-3.7,3.5-5.4,5.1c0.3,0.8,0.7,1.4,0.9,2.1c0.3,1.2,0.5,2.5,0.8,3.7c0.4,1.4,0.3,2.8-0.4,4   c-1.1,1.7-1.3,3.5-1.5,5.4c-0.3,4.4-1.9,8.3-5,11.6c-1.7,1.8-3.2,3.8-5,5.4c-1.3,1.2-2.9,1.9-4.3,2.9c-0.4,0.3-0.9,0.4-1.5,0.8   c0.5,0.4,0.8,0.8,1.1,1.1c1.7,1.5,3,3.2,3,5.6c0,2.2-0.8,3.1-3,3.2c-1.9,0.1-3.8,0-5.8,0c-1,0-1.7,0.3-2.6,1c-3.5,2.9-7.1,5.8-12,6   c-1.7,0.1-3.4,0.2-5.1,0.4c0,0-0.1,0.1-0.1,0.1c1.2,2.4,1.7,5,2,7.6c0.4,3.4-0.8,6.1-3.8,7.8c-3,1.7-6.3,2.6-9.6,3.2   c-3.4,0.6-6.8,1.3-10.2,1.7c-1.3,0.2-2.7-0.1-4-0.3c-1-0.2-1.9-0.5-2.8-0.8c0.7,3.1,1.5,6,2,9c0.4,2.1,0.3,4.3,0.4,6.4   c0,0.4-0.5,0.9-0.8,1.2c-1.7,1.4-3.6,1.9-5.7,2.4c-4.4,1-8.9,1.3-13.3,0.3c-0.6-0.1-1.3-0.5-1.9-0.8c-1.9-1-2.2-1.4-1.8-3.6   c0.7-3.6-1.1-7.4-4.6-9.2c-2.1-1.1-4.4-1.9-6.9-2.9c0,1.2-0.1,2.1,0,2.9c0.9,5.2-0.3,10.2-1.8,15.1c-0.2,0.5-0.7,1-1.2,1.4   c-3,2.1-6.5,3.1-9.9,4.2c-2.5,0.7-5,1.4-7.5,2.1c-0.2,0.1-0.4,0-0.7-0.1c-4-1.2-6.9-3.9-9.3-7.1c-0.6-0.8-0.6-2.2-0.6-3.4   c-0.1-2.9,0.1-5.7,0-8.6c0-0.6-0.3-1.2-0.7-1.7c-1.5-2.1-1.8-4.4-1.7-6.9c0-0.4,0-0.9-0.1-1.6c-1.8,1.6-3.4,3-5,4.5   c-3.8,3.6-7.6,7.2-11.5,10.7c-3.1,2.8-6.2,5.5-9.3,8.3c-0.8,0.7-1.6,0.7-2.4-0.1c-5.6-5.3-11.2-10.5-16.7-15.8   c-1.9-1.8-3.8-3.5-5.8-5.3c-0.1,0.3-0.3,0.5-0.3,0.7c0.2,2-0.6,3.8-1.6,5.5c-0.5,0.9-0.7,1.9-0.8,2.9c0,2.7,0.2,5.3,0.2,8   c0,1-0.2,2.2-0.8,2.9c-2.2,2.8-4.7,5.3-8.1,6.7c-0.9,0.4-1.7,0.5-2.7,0.2c-3.4-1.1-7-1.8-10.4-3c-2.2-0.7-4.3-1.9-6.3-3   c-0.6-0.3-1.1-1.1-1.3-1.8c-1.3-4.2-2.2-8.4-1.8-12.9c0.1-1.4,0.2-2.8,0.3-4.4c-4.2,1.1-8.2,2.2-10.6,6c-1.1,1.7-1.2,3.9-0.9,5.9   c0.3,1.8,0,2.5-1.6,3.4c-1.7,0.9-3.5,1.2-5.4,1.4c-4.2,0.5-8.2-0.3-12.2-1.3c-1.5-0.4-3-1.4-4.1-2.5c-0.6-0.5-0.4-1.9-0.3-2.9   c0.2-4.4,0.8-8.7,2.8-13.1c-1,0.2-1.9,0.3-2.6,0.6c-1.7,0.7-3.4,0.8-5.1,0.4c-4.2-0.8-8.5-1.5-12.7-2.4c-2.7-0.6-5.3-1.6-7.6-3.2   c-2.3-1.7-3-4.1-2.7-6.8c0.3-2.8,0.7-5.5,2.3-8.1c-0.9,0-1.5,0.1-2.1,0c-2.5-0.3-5.1-0.3-7.4-1.1c-2.2-0.8-4.2-2.4-6.2-3.7   c-1.7-1.1-3-2.6-3.9-4.3c-0.4-0.8-0.6-1.8-0.8-2.7c-0.1-0.4,0-0.9,0-1.3c-0.1-2.1-0.5-2.9-2.4-3.4c-5-1.3-8.6-4.5-11.7-8.4   c-1.7-2.1-3.8-4.1-4.6-6.8c-0.7-2.6-1.1-5.3-1.6-8c-0.1-0.5,0-1.2-0.3-1.6c-1.6-2.4-2-4.8-0.9-7.6c0.8-1.9,0.3-3.2-1.5-4.5   c-1.9-1.3-3.4-3.1-5.1-4.7c-8.4-8.1-16.7-16.3-25-24.5c-5.2-5.1-10.2-10.4-15.3-15.6c-1.2-1.2-2.4-2.4-3.5-3.7   c-1-1.1-0.8-1.5,0.2-2.6c2.4-2.8,5.4-4.6,8.7-6.3c3.4-1.8,6.6-3.9,9.9-5.8c2-1.2,4.1-2.3,6.2-3.5c3-1.7,5.9-3.4,8.9-5.1   c2.9-1.6,5.8-3.2,8.7-4.8c0.9-0.5,1.9-1,2.7-1.6c0.3-0.2,0.6-0.7,0.6-1c0.5-7.3,3.8-13.6,7.8-19.5c0.7-1,1.5-1.1,3.2-0.5   c1.8,0.6,3.7,1.1,5.6,1.7C71.9,167.7,72.4,167.7,73,167.7z M135.1,241.8c0.8-2.2,1.6-4.3,2.2-6.4c0.6-1.9,1.8-3.8,1-6   c-0.5-0.1-1.1-0.3-1.7-0.3c-6.1,0-12.2,0-18.2,0c-1.1,0-2,0.5-2.3,1.6c-0.3,1-0.6,2.1-0.9,3.1c1.8,0.6,3.5,1.2,5.3,1.7   c1.1,0.3,1,0.9,0.5,1.7c-0.4,0.6-0.9,1.2-1.2,1.9c-0.7,1.9-1.9,2.6-4,2.5c-5.2-0.2-10.4-0.2-15.7-0.3c-0.4,0-0.9-0.2-1.3-0.4   c-1.5-0.9-3.1-1.8-4.5-2.7c-1-0.6-1.7-0.3-2.2,0.4c-1.8,2.3-3.6,4.7-5.4,7c-0.5,0.7-0.5,1.3,0.1,1.9c0.5,0.4,1.1,1,1.6,1   c2,0.3,3.9,0.4,5.9,0.5c6.2,0.1,12.4,0.2,18.7,0.3c0.4,0,0.8,0,1.4,0c-1.3,2.4-2.5,4.7-3.7,6.9c-1.7,3.2-3.3,6.4-5.1,9.6   c-3.4,6.3-6.9,12.6-10.4,18.9c-1.7,3-3.4,6-5.1,9c-1,1.9-2.1,3.8-2.9,5.8c-0.8,2,0.1,3.8,2.2,4.2c2.2,0.4,4.4,0.5,6.6,0.5   c45.3,0,90.5,0,135.8,0c0.4,0,0.9,0,1.5,0c-0.2-1-0.3-1.9-0.5-2.7c-0.4-1.8-1.3-3.5-1.3-5.3c0-1.9-1.1-2-2.3-2.4   c-3.9-1.3-7.8-2.6-11.7-3.9c-3.5-1.2-4-0.7-5,2.5c-0.3,1-0.8,1.3-1.8,1.3c-24.6,0-49.2,0-73.9,0c-6.9,0-13.7-0.1-20.6-0.2   c-0.1,0-0.2,0-0.4,0c0-0.2,0.1-0.4,0.1-0.6c1.2-2.9,2.4-5.7,3.5-8.6c4-10.6,7.9-21.3,11.8-32c0.3-0.9,0.5-2.1,1.1-2.5   c0.6-0.4,1.8-0.1,2.7-0.1c0.2,0,0.5,0,0.7,0c2.5,0,5,0,7.4,0c0.4,0,0.8,0,1.2,0.1c-0.1,0.4-0.1,0.6-0.1,0.8c-0.7,2.6-1.4,5.1-2,7.7   c-1.5,5.4-2.9,10.8-4.4,16.2c-1.1,4.2-2.4,8.3-3.4,12.4c-0.6,2.6,1,4.3,3.3,4.7c1.7,0.3,3.5,0.3,5.2,0.3c11.3,0.1,22.7,0.2,34,0.2   c6.4,0,12.7,0,19.1,0c3,0,4.8-2.5,4.2-5.3c-0.3-1.2-0.4-2.4-0.6-3.6c-0.5-3.2-1.1-6.4-1.6-9.6c-0.5-3.2-1-6.4-1.5-9.7   c-0.5-2.9-0.9-5.9-1.4-8.8c-0.2-1.4-0.4-2.9-0.6-4.3c0.4,0,0.6-0.1,0.8-0.1c5.8-0.1,11.6-0.2,17.5-0.2c1.3,0,1.8-0.7,1.6-1.9   c-0.2-0.9-0.4-1.9-0.5-2.8c-0.1-1.8-1-3-2.7-3.5c-3.4-1.1-6.8-2.2-10.3-3.3c-0.7-0.2-1.3,0-1.5,0.9c-0.2,0.8-0.6,1.5-0.9,2.3   c-0.3,0.8-0.8,1-1.6,0.9c-1-0.1-2.1-0.1-3.1-0.3c-0.3,0-0.7-0.4-0.8-0.6c-0.4-2.4-0.7-4.9-1-7.4c-0.4-3-1.2-5-5.4-4.9   c-4.6,0.1-9.1,0-13.7,0c-0.8,0-1.5,0-2.2,0c-0.3,1.1-0.5,2.2-0.7,3.2c-0.3,1.4-0.2,1.7,1.2,2.2c0.7,0.2,1.3,0.4,2,0.6   c0,2.3,0,4.5,0,6.7c-1.1,0-2.1,0-3.1,0c-1.7,0-3.4,0-5.2,0c-0.3,0-0.9-0.5-0.9-0.7c0.3-2.9,0.7-5.8,1.1-8.6   c0.1-1.1,0.1-2.2,0.2-3.6c-7.1,0-14.1-0.1-21,0.1c-1.5,0-0.9,1.9-1.4,2.8c-0.2,0.3,0.1,0.8,0.2,1.2c0,0,0.1,0.1,0.2,0.1   c1.4,0.7,2.9,1.3,4.3,2c-0.1,0.6-0.2,1.4-0.3,2.1c-0.3,1.3-0.5,2.5-0.9,3.8c-0.1,0.3-0.8,0.6-1.2,0.6c-2.1,0-4.3-0.1-6.4-0.2   C137.7,241.7,136.4,241.8,135.1,241.8z M202,191.4c-0.9,1.4-1.8,2.8-2.8,4.1c-0.7,1.1-1.6,1.9-3.1,2.1c-2.7,0.5-5.4,1.3-8.1,1.9   c-6.7,1.6-13.3,3.1-20,4.8c-0.7,0.2-1.4,0.4-1.9,0.9c-1.6,1.7-3.1,3.5-4.6,5.2c-1.2,1.3-2.3,2.8-3.6,4c-1.3,1.2-2.1,3-4,3.6   c-1.2,0.4-2.3,0.9-3.5,1.1c-3.8,0.8-7.7,1.6-11.5,2.4c-2.1,0.4-4.2,0.9-6.3,1.2c-1.1,0.1-2.3,0.2-3.2-0.8c-0.6-0.7-1.3-1.4-2-2   c-1-0.9-2.2-1.6-3.1-2.5c-1.8-1.7-1.7-4.8-0.1-6.6c1.8-2,3.5-4.1,5.2-6.2c-0.1-0.1-0.1-0.2-0.2-0.2c-8.6,6.3-17.2,12.5-25.8,18.9   c3,2.7,5.9,5.3,9,8c0.2-0.9,0.4-1.6,0.6-2.3c0.4-1.7,1.7-2.9,3.5-3.1c1.4-0.1,2.8-0.3,4.3-0.2c5.5,0,11,0.2,16.5,0.2   c1.5,0,2.8,0.4,3.9,1.4c1.3-1.4,3-1.3,4.6-1.4c2,0,4,0.2,6,0.2c4.6,0.1,9.2,0.2,13.9,0.3c0.5,0,1,0,1.4,0.3c0.8,0.7,1.5,0.8,2.4,0   c0.2-0.2,0.7-0.3,1.1-0.3c2.6-0.1,5.2-0.2,7.9-0.2c3.7,0,7.4,0.1,11.1,0.2c1.2,0,2.4,0.4,3.3,1.4c0.7,0.9,1.3,1.9,2.2,2.6   c1.7,1.4,3.1,2.8,3.5,4.9c1.5,0.1,2.9,0,4.2,0.4c3.5,0.9,7,2,10.4,3.2c1.5,0.5,2.9,1.3,3.4,2.9c0.3,0.8,0.7,1.2,1.4,1.6   c1.1,0.6,1.9,1.5,2.1,2.8c0.4,2.1,0.7,4.2,1.1,6.1c1-0.1,2-0.3,3.1-0.4c1.2-0.1,2.5-0.1,3.7-0.3c0.4-0.1,0.8-0.4,1.1-0.7   c2.6-3.4,5.2-6.9,7.8-10.3c2.9-3.9,5.9-7.8,8.8-11.7c0.8-1,1.4-2.3,2.9-2.4c1.4-0.1,2.8-0.3,4.2-0.2c6.6,0,13.2,0.1,19.7,0.2   c1.7,0,2.6,0.7,3.3,2.2c0.1,0.3,0.4,0.6,0.7,0.6c1.4,0.1,2.7,0,4.1,0c6.4,0.1,12.8,0.1,19.1,0.2c1.4,0,2.7,0.5,3.7,1.6   c0.3,0.3,0.7,0.6,1.2,1c0-1,0-1.6,0-2.3c-2.3-0.3-4.5-0.7-6.8-1c-2.9-0.4-5.8-0.8-8.6-1.3c-3.5-0.6-6.9-1.3-10.4-1.8   c-3.8-0.6-7.5-1.1-11.3-1.7c-1.5-0.3-3-0.7-3.7-2.4c-0.1-0.3-0.7-0.6-1.1-0.7c-1.7-0.6-2.9-1.8-3.4-3.5c-0.3-1.1-0.7-2.2-0.9-3.4   c-0.8-3.4-1.5-6.8-2.2-10.2c-0.2-0.8-0.5-1.4-1.5-1.5c-1.3-0.2-2.4-0.7-3-2c-0.2-0.3-0.5-0.6-0.8-1c-0.6,1.1-1.1,2.1-1.5,3   c-3.3,7.1-6.6,14.2-9.8,21.3c-0.7,1.6-2,2.3-3.6,2.4c-3.1,0.3-6.1,0.5-9.2,0.7c-3.1,0.2-6.3,0.3-9.4,0.5c-3.5,0.2-7.1,0.4-10.6,0.5   c-3.1,0.1-6.2,0.1-9.2,0c-1.8-0.1-3.5-0.8-4.6-2.4c-0.3-0.4-0.7-0.8-1.2-1c-3.7-1.7-4.4-4.1-3-8.1c0.7-1.9,2.5-2.4,4.2-3   c8.3-3.2,16.6-6.4,24.9-9.6c0.5-0.2,1-0.7,1.3-1.2c0.6-1.3,1.1-2.7,1.6-4c0.6-1.5,1.2-3,1.8-4.7c-1.1,0.1-2,0.3-2.9,0.3   c-4.3,0-8.7-0.2-13-0.2C204.4,193.5,203.1,192.9,202,191.4z M261.9,259.1c1.1,0.2,2,0.4,2.8,0.4c9.5,0,19,0,28.5,0   c0.7,0,1.1,0.2,1.4,0.9c1.8,3.5,3.5,7,5.5,10.4c3.7,6.6,7.5,13.3,11.4,19.8c2.5,4.3,5.2,8.6,7.8,12.9c0.4,0.6,0.8,0.9,1.6,0.9   c4.9-0.1,9.8-0.1,14.6,0c3.6,0,7.2,0.2,10.7,0.2c5.2,0,10.4,0,15.6,0c0.8,0,1.2-0.6,0.7-1.3c-0.8-1-1.7-2-2.6-2.8   c-0.5-0.5-1.2-0.9-1.8-1c-4.6-0.8-9.2-1.4-13.8-2.2c-1.1-0.2-2.4,0.2-3.3-1.1c-3.4-5-7-9.8-10.4-14.7c-4.3-6.3-8.4-12.7-12.6-19.1   c-0.6-0.9-1.1-1.9-1.8-3.1c0.7,0,1.2,0,1.7,0c10,0,19.9,0,29.9,0c2,0,4-0.1,6.1-0.3c0.4,0,0.9-0.3,1-0.6c0.1-0.3-0.2-0.8-0.4-1.1   c-1.5-1.8-3.1-3.6-4.6-5.3c-0.7-0.8-1.3-1.7-2.5-1.9c-4.3-0.7-8.6-1.6-13-2.4c-1.4-0.2-2.2,0.6-2.1,2c0,0.6,0.2,1.1,0.3,2.1   c-4.1,0-8,0-11.9,0c-2.6,0-5.1-0.1-7.7,0c-1,0-1.5-0.4-2-1.1c-2.8-5.1-5.7-10.2-8.6-15.2c-0.9-1.5-2-2.8-3.9-2.9   c-6.9-0.1-13.8-0.2-20.7-0.2c-0.4,0-1.1,0.3-1.2,0.6c-0.5,1.4-0.8,2.8-1.2,4.4c2.5,0.5,4.8,0.9,7,1.2c1.4,0.2,2.5,0.6,2.9,2.2   c0.2,1,0.8,1.9,1.2,2.8c1.2,2.7,2.5,5.3,3.8,8.1c-0.6,0-0.9,0-1.3,0c-3.9,0-7.8,0-11.6,0c-0.4,0-0.7,0-1.1,0   c-2.3,0.4-4.6,0.6-6.7-1c-0.3-0.2-0.6-0.4-0.9-0.6c-0.8-0.4-1.5-0.4-1.9,0.6c-0.2,0.5-0.5,1.1-0.8,1.6   C264.7,254.6,263.4,256.7,261.9,259.1z M42.8,218.5c2.4,2.3,4.7,4.4,6.9,6.5c4.6,4.3,9.1,8.7,13.7,13c1.5,1.4,3.1,2.8,4.7,4.2   c2.9,2.5,5.8,4.9,8.6,7.4c2.2,1.9,4.3,3.9,6.5,5.7c3.5,3,7.1,5.9,10.6,9c1,0.9,1.5,0.7,2.4,0.1c2.5-1.7,5-3.4,7.5-5.1   c1-0.7,2-1.4,3-2.1c0-0.2,0-0.3,0-0.5c-0.7-0.3-1.4-0.9-2.1-0.9c-4.3-0.2-8.6-0.2-12.9-0.3c-2,0-3.4-0.9-4.6-2.5   c-0.6-0.8-1.3-1.7-2.1-2.3c-1.7-1.3-2.4-4.8-1.2-6.6c1.2-1.7,2.4-3.3,3.6-5.1c-1.2-1.1-2.4-2.3-3.7-3.5c-1.3-1.3-2.7-2.5-4-3.8   c-2.3-2.1-4.6-4.3-6.9-6.4c-0.6-0.6-1-1.4-0.3-2.3c1.4-1.6,2.7-3.4,4.4-4.7c4-3,8.2-5.8,12.3-8.7c6.1-4.3,12.3-8.6,18.4-12.9   c5.4-3.8,10.9-7.6,16.3-11.4c0.3-0.2,0.5-0.5,0.7-0.7c-1.1-0.8-2-1.4-3-2.1c-2.4-1.6-4.8-3.3-7.2-4.9c-0.3-0.2-1-0.3-1.3-0.1   c-3.7,2-7.4,4.1-11.1,6.3c-4.5,2.6-8.9,5.2-13.4,7.9c-3.3,1.9-6.6,3.9-9.9,5.8c-4,2.3-8.1,4.6-12.2,6.9c-4.9,2.9-9.8,5.8-14.7,8.7   C48.8,214.9,45.9,216.6,42.8,218.5z M315,184.7c0.3,0.3,0.4,0.5,0.6,0.6c2.5,1.7,5,3.5,7.6,5.2c4.3,3,8.6,6,12.8,9   c7.8,5.5,15.6,11,23.4,16.5c2.6,1.8,5.2,3.7,7.4,6.1c1.7,1.9,1.2,2.3,0,3.3c-1.6,1.5-3.1,3-4.7,4.4c-2.7,2.6-5.4,5.1-8.2,7.7   c-1.4,1.3-2.9,2.7-4.4,4c-0.9,0.8-1.6,1.6-1.4,3c0.1,0.7,0,1.5,0,2.3c3.9,1.3,5.7,5.3,8.7,7.9c0.7-0.6,1.4-1.1,2.1-1.7   c3.1-2.7,6.2-5.4,9.3-8.1c3.7-3.2,7.3-6.4,10.9-9.7c3.7-3.4,7.3-6.9,10.9-10.4c0.3-0.3,0.6-0.5,0.9-0.7c1.9-1.8,3.8-3.7,5.7-5.5   c-0.1-0.1-0.1-0.2-0.2-0.2c-5.6-3.3-11.3-6.7-16.9-10c-4.3-2.6-8.6-5.1-13-7.7c-3.6-2.1-7.2-4.2-10.8-6.3c-3.1-1.7-6.2-3.4-9.2-5.2   c-3.9-2.3-7.8-4.6-11.7-6.8c-2.6-1.5-5.3-3-7.8-4.5c-0.8-0.5-1.4-0.4-2.1,0.1C321.7,180.1,318.5,182.3,315,184.7z M251.5,304.1   c0.1-2.7,0.3-5.3,0.4-8c0.1-3.9,0.2-7.9,0.2-11.8c0-2.8,0-5.7,0-8.5c0.1-4,0.2-8,0.2-12c0-0.9,0.2-1.2,1.1-1.2   c1.9,0.2,3.2-0.7,4.1-2.3c2.3-4.2,4.7-8.5,7-12.7c1.7-3,3.4-6,5-9.1c1.1-2.1,2.2-4.2,3-6.3c0.6-1.6-0.3-2.7-2-2.7   c-3.6-0.1-7.2-0.2-10.9-0.2c-3.1,0-6.2,0-9.2,0c-0.4,0-1,0.2-1.3,0.6c-2.4,3-4.7,6-7,9.1c-2.2,2.9-4.5,5.8-6.7,8.7   c-1.7,2.3-3.4,4.6-5.1,6.8c-0.2,0.3-0.7,0.5-1.1,0.5c-1.7,0-3.4,0-5.2,0c-0.7,0-1.2,0.2-1.5,0.9c-0.7,1.3-1.5,2.6-2.3,3.9   c-0.4,0.7-0.7,1.4-1.2,2.2c0.5,0.2,0.9,0.3,1.2,0.4c1.7,0.1,3.5,0.2,5.2,0.2c4.3,0.1,8.6,0.2,12.9,0.3c0.1,0,0.3,0.1,0.3,0.1   c-1.8,13.8-3.5,27.6-5.2,41.4C239.8,304.1,245.6,304.1,251.5,304.1z M216.8,148.6c-1.1,2.4-2,4.5-3,6.6c-3.3,7.2-6.6,14.4-9.8,21.6   c-1.1,2.4-2.1,4.7-3,7.1c-0.8,2,0.3,3.6,2.2,3.7c2.5,0.1,4.9,0.2,7.4,0.2c2.3,0,4.6-0.2,6.9-0.2c2.2,0,3.4-0.8,4-2.9   c1.2-3.8,2.5-7.5,3.7-11.3c0.1-0.4,0.4-0.8,0.7-0.9c0.8-0.2,1.6-0.3,2.3-0.3c10.9,0.1,21.9,0.2,32.8,0.2c5.8,0,11.5,0,17.3,0   c1.1,0,2.3-0.2,3.4-0.1c1.5,0.1,2.3-0.7,2-2.1c-0.2-1.1-0.3-2.3-0.7-3.4c-0.5-1.4-0.4-3.1-2.4-3.7c-3.1-1.1-6.1-2.4-9.2-3.6   c-1.8-0.7-2.4-0.6-3.4,1c-0.2,0.4-0.3,0.9-0.5,1.3c-0.1,0.2-0.4,0.6-0.6,0.6c-0.8,0.1-1.6,0.2-2.3,0.3c-5,0.1-10,0.2-15.1,0.2   c-1.5,0-3.1-0.2-4.6-0.2c-1.8,0-3.5,0-5.3,0c-3.7,0-7.5,0-11.3,0c0.1-0.6,0.1-0.9,0.1-1.1c0.5-1.8,1.1-3.7,1.6-5.5   c1-3.8,1.8-7.6,2.8-11.4c0.5-2-1.3-4.9-3.5-5c-2.2-0.1-4.4-0.2-6.7-0.2c-3.4,0-6.8,0.1-10.3,0.2c-0.4,0-0.8,0.2-1.2,0.4   c-1.8,1-2.3,2.9-3.2,4.9C210.9,146.1,213.8,147.3,216.8,148.6z M199.2,221.7C199.2,221.7,199.2,221.7,199.2,221.7   c1.4,0,2.9-0.2,4.3-0.2c2-0.1,4-0.2,6.1-0.2c3.2-0.1,6.3-0.3,9.5-0.5c3.8-0.2,7.6-0.3,11.4-0.5c1.6-0.1,3-0.6,3.6-2.3   c0.8-1.9,1.7-3.8,2.6-5.7c1.9-4.1,3.8-8.3,5.7-12.4c3.2-7,6.3-14,9.6-21c0.6-1.3,0.2-2.2-0.4-3.2c-0.8-1.2-2.2-1.2-3.4-1.2   c-4.5-0.1-9,0-13.6,0c-1,0-1.6,0.3-2,1.3c-1.6,4.1-3.2,8.1-4.8,12.1c-2.1,5.6-4.2,11.2-6.4,16.8c-0.2,0.6-0.8,1.3-1.3,1.5   c-4.5,1.8-9.1,3.5-13.6,5.2c-4.8,1.8-9.6,3.7-14.4,5.5c-1.3,0.5-1.7,2.6-0.6,3.4c0.9,0.6,2,1.2,3.1,1.4   C196.1,221.8,197.7,221.7,199.2,221.7z M135.3,138c1.6,0,3.2-0.3,4.6,0.1c3.5,0.7,6.8,2.1,9.2,4.9c0.7,0.7,1.2,1.6,1.6,2.5   c0.3,0.7,0.2,1.5,0.3,2.1c1.2,0,2.4,0.1,3.5,0c1.7-0.2,3.4-0.1,4.9-1.2c3.4-2.5,6.8-5,9.5-8.4c2.6-3.3,5.3-6.4,7.8-9.8   c1-1.4,1.8-3.2,2.1-4.9c0.6-3.6-0.8-6.9-2.2-10.1c-0.2-0.4-0.7-0.7-1.2-0.8c-1.2-0.2-2.5-0.3-3.8-0.2c-1,0-1.7-0.1-1.9-1.5   c-3.1,0.4-6.1,0.7-9.1,1.2c-4.9,0.9-9.7,1.8-14.5,2.9c-2.5,0.6-4.6,1.8-5.8,4.3c-0.9,1.8-2.1,3.4-3,5.2c-0.8,1.5-1.5,3-2,4.6   C134.7,131.7,134.9,134.8,135.3,138z M306.8,138c0.1-0.7,0.1-1.1,0.2-1.6c0.3-3,0.5-6.1-0.8-8.9c-1.3-2.8-3-5.5-4.4-8.3   c-1-1.9-2.4-3.4-4.4-4c-2.5-0.8-5-1.4-7.6-2c-3.5-0.7-7.1-1.4-10.6-1.9c-2.3-0.3-4.5-0.5-7-0.7c0,1.3-0.8,1.4-1.7,1.4   c-0.7-0.1-1.4,0-2.2,0c-2.4,0.1-2.7,0.3-3.5,2.6c-0.3,0.9-0.6,1.8-0.9,2.7c-1.5,3.9-0.9,7.6,1.5,10.9c2.9,4,6.1,7.7,9.3,11.5   c1.4,1.6,3.1,2.8,4.7,4.2c2.8,2.5,5.9,4.1,9.8,3.7c0.6-0.1,1.2,0,1.9,0c0.2-0.9,0.3-2,0.6-3c0.7-1.8,2.4-2.7,3.8-3.7   c2.8-1.9,5.9-3.1,9.4-2.9C305.4,138,306.1,138,306.8,138z M265.6,319.4c-1.3,1.2-2.6,2.3-3.7,3.4c-2.8,2.6-5.6,5.3-8.4,7.9   c-1.3,1.2-2.7,2.4-4.1,3.6c-0.9,0.8-1.6,1.6-1.4,3c0.1,0.8,0.1,1.6,0,2.4c-0.2,2,0.6,3.5,1.8,5c0.3,0.4,0.6,0.8,0.6,1.2   c0,3.5-0.2,6.9-0.2,10.4c0,1,0.2,2.3,0.8,3c1.7,1.8,3.7,3.4,5.7,5c0.5,0.4,1.4,0.7,2.1,0.6c1.7-0.3,3.4-0.8,5.1-1.2   c3.7-0.9,7.3-1.9,10.6-3.7c1.1-0.6,2.2-1.2,2.5-2.6c1.2-4.3,1.8-8.6,1.4-13.1c-0.1-1.9-0.1-3.8-0.3-5.6c-0.1-1.4,0-3.1-0.6-4.3   c-1.3-2.7-2.6-5.7-5.6-7.2c0.2,3.6,0.3,7.2,0.4,10c-0.5-1.8-1.2-4.4-1.9-7c-0.4-1.4-0.9-2.8-1.2-4.3   C268.9,323.3,267.6,321.2,265.6,319.4z M266.6,318.4c2.2,1.8,3.5,4,4.4,6.4c0.1,0.2,0.4,0.4,0.6,0.5c2.2,1.4,4.6,2.5,6.4,4.2   c1.4,1.4,3.1,1.7,4.7,2.2c1,0.3,2,0.4,2.9,0.8c2.1,0.9,4.1,0.8,6.3,0.4c1.6-0.3,3.2-0.7,4.8-1c2.9-0.5,5.9-1,8.2-2.9   c1.8-1.4,3.5-3.1,4.9-5c2-2.7,3.8-5.6,2.5-9.4c-0.9-2.6-1.8-5.2-4.1-6.7c-2.1-1.4-4.4-2.6-6.8-3.1c-3.7-0.8-7.5-1.3-11.3-1.5   c-3.4-0.2-6.4,1.4-9.3,3C275.4,309.5,271.4,314.3,266.6,318.4z M247.8,190.9c0.6,1,1.2,2.1,1.8,3.1c0.7,1.2,1.4,2.1,3,2.3   c1.4,0.2,2.8,0.7,4.2,1.2c0.4,0.1,0.9,0.6,1,0.9c0.5,1.8,1,3.6,1.4,5.4c1,4.1,1.9,8.2,2.9,12.2c0.2,1,0.9,1.6,2,1.8   c3.3,0.5,6.7,1.1,10,1.7c2.7,0.5,5.5,0.9,8.2,1.4c3.1,0.5,6.1,1,9.2,1.5c3.1,0.5,6.2,0.9,9.3,1.4c2.1,0.4,4,0.2,5.5-1.6   c0.7-0.8,0.9-2.9,0.5-3.8c-0.9-1.7-1.7-3.5-2.6-5.3c-1.2-2.5-2.3-5-3.5-7.5c-0.2-0.5-0.9-1-1.4-1.1c-1.9-0.4-3.8-0.6-5.7-0.8   c-3-0.3-6-0.6-9-1c-3.4-0.4-6.7-0.9-10.1-1.2c-1.8-0.2-3-0.9-3.8-2.6c-0.9-2-2.2-3.9-3-6c-1-2.4-2.6-3.6-5.3-3.3   c-2.3,0.2-4.6,0.1-6.9,0c-1.3,0-2.7-0.2-4-0.2C250.1,189.7,248.7,189.2,247.8,190.9z M170,327.3c-2.1,0.9-3.1,2.8-4.3,4.6   c-0.6,0.9-1.3,1.9-1.4,2.9c-0.6,3.8-0.7,7.7-0.8,11.5c-0.1,4.1,0.8,7.9,1.8,11.7c0.1,0.3,0.4,0.7,0.7,0.9c2.3,1.1,4.5,2.4,6.9,3.2   c2.9,1,6,1.6,8.9,2.5c1.4,0.4,2.7,0.4,3.8-0.6c1.8-1.6,3.7-3.1,5.4-4.8c0.9-0.9,1-2.1,0.8-3.3c-0.1-0.3-0.1-0.7-0.2-1   c0-3,0-5.9,0-8.9c0-0.4,0.1-0.9,0.3-1.1c1.7-1.7,2.4-3.8,2.1-6.2c-0.1-0.6-0.3-1.3-0.7-1.7c-2.7-2.6-5.5-5-8.2-7.6   c-3.2-3-6.4-6-9.5-9c0,0-0.1,0-0.2-0.1c-1.4,1.8-2.3,3.7-2.9,5.9c-0.9,3.9-2.1,7.8-2.9,10.6C169.7,334.5,169.9,330.9,170,327.3z    M197.1,185.5c-1.2-0.7-2.4-1.8-3.5-1.9c-3.2-0.1-6.4,0.3-9.6,0.6c-3.9,0.3-7.8,0.7-11.7,1c-3.4,0.3-6.9,0.5-10.3,0.7   c-3.5,0.2-7,0.4-10.4,0.7c-2.2,0.2-4.1,1.3-5.5,3c-2.3,2.8-4.6,5.6-6.8,8.5c-2,2.5-4,5-6,7.4c-1.9,2.3-3.7,4.6-5.7,6.8   c-1.6,1.8-1.7,1.7-0.2,3.6c0.7,0.9,1.6,1.5,2.8,0.8c0.4-0.2,0.8-0.3,1.2-0.4c4.9-1,9.9-2,14.8-3.2c1.5-0.3,3.2-0.8,4.3-1.8   c2.3-2.1,4.3-4.6,6.4-7c0.9-1.1,1.7-2.3,2.8-3.2c0.9-0.7,1.1-2,2.5-2.3c4.9-1.1,9.8-2.4,14.7-3.5c4.8-1.1,9.6-2.3,14.4-3.4   c1-0.2,1.9-0.6,2.5-1.7C194.7,188.6,195.9,187.2,197.1,185.5z M256.3,186.5c0.1,0.1,0.1,0.3,0.2,0.4c2.8,0,5.6,0,8.5,0   c2,0,3.5,1,4.5,2.6c1.6,2.5,3,5.1,4.3,7.7c0.6,1.1,1.3,1.6,2.5,1.5c0.3,0,0.6,0,1,0c3.7,0.5,7.5,1,11.2,1.4c3.9,0.5,7.7,1,11.6,1.5   c1.2,0.2,2.4,0.5,3.1,1.7c1.1,1.8,2.3,3.6,3.2,5.5c1.3,2.6,2.4,5.2,3.7,7.8c1.3,2.5,2.7,4.9,2.4,7.9c-0.1,0.8,0.3,1.1,1.1,1.2   c3.6,0.2,7.3,0.4,10.9,0.5c2.4,0.1,4.8,0.2,6.8,2c1.7-1.5,3.4-3,5.1-4.5c-0.5-0.4-0.8-0.6-1.2-0.9c-1.6-1.1-3.1-2.3-4.7-3.4   c-4.1-3-8.2-6-12.4-9c-4.2-3-8.3-6-12.5-9.1c-5-3.6-9.9-7.3-14.9-11c-4.6-3.4-9.3-6.7-13.9-10.2c-1.3-1-2.6-1.5-4.2-1.4   c-2.4,0.1-4.9,0-7.3,0c-2.6,0-5.3,0-7.9,0C258.4,181.3,257.7,183.9,256.3,186.5z M174,319.3c-2.5-2.4-5.1-4.9-7.7-7.4   c-0.6-0.6-1.1-0.8-2-0.8c-10,0-19.9,0-29.9,0c-1.1,0-2.6-0.4-3.3,0.2c-0.8,0.6-1,2.1-1.3,3.2c-0.4,1.6-1.2,3.3-0.4,5   c0.6,1.1,1,2.4,1.7,3.3c1.4,1.8,3.2,3.4,4.6,5.2c1.4,1.7,3.2,2.5,5.2,3c2.2,0.6,4.4,1,6.6,1.5c1.3,0.3,2.6,0.5,3.9,0.7   c2.5,0.4,4.7-0.7,7-1.3c1.9-0.6,3.9-0.9,5.5-2.4c1.8-1.7,4.2-2.8,6.3-4.1c0.3-0.2,0.5-0.5,0.6-0.7C172,322.9,172.9,321.2,174,319.3   z M342.9,163.2c1.7-2.4,3.4-4.7,4.9-7.1c1.8-2.9,3.5-5.9,2.9-9.5c-0.3-2.1-1-4.2-1.5-6.3c-0.7-2.7-1.4-5.5-2.3-8.1   c-0.6-1.6-1.2-3.5-2.4-4.6c-2.6-2.6-6.1-3.6-9.8-3c-0.9,0.1-1.9,0.5-2.6,1c-2.6,2-4.4,4.5-4.9,7.8c-0.1,0.8-0.4,1.5-0.6,2.3   c-0.8,2.2-1.6,4.4-2.3,6.6c-0.3,1.1-0.2,2.4-0.5,3.5c-0.4,1.8,0,3.4,0.9,4.8c0.8,1.5,1.8,2.8,2.7,4.3c0.1,0.2,0.3,0.3,0.5,0.4   c0.5,0.1,1,0.1,1.4,0.3c1.6,0.8,3.2,1.7,4.8,2.6C336.9,159.8,339.8,161.4,342.9,163.2z M209.6,290.4c0.1-0.3,0.2-0.7,0.4-1.1   c1.1-2.9,3.3-3.8,6-3.3c2.1,0.3,4.2,1.1,6.2,1.7c3.2,1,6.4,2.2,9.8,3.3c1-7.3,2-14.5,2.9-21.7c-1.1-0.1-2-0.3-2.9-0.3   c-2.9-0.1-5.8-0.1-8.7-0.3c-2.4-0.1-3.2-0.8-3.8-3.2c-0.1-0.3-0.5-0.5-0.8-0.6c-1.1-0.3-2-0.7-2.3-2c-0.4-1.6,0-2.9,0.8-4.3   c0.4-0.7,0.8-1.3,1.2-2c-5.6,0.2-11.1,0.3-16.8,0.5c0.5,2.9,0.9,5.9,1.4,8.8c0.6,3.8,1.1,7.5,1.7,11.3c0.5,3.5,1.2,7,1.6,10.5   C206.6,290.4,206.9,290.7,209.6,290.4z M121.8,144.5c0.4-0.2,0.7-0.3,1-0.5c2.9-2,5.9-4.1,8.8-6.1c0.3-0.2,0.5-0.7,0.5-1   c0.1-1.5,0.2-3,0.3-4.5c0.3-2.9,1.3-5.4,2.8-7.9c1.3-2.2,2.4-4.7,3.9-6.7c1.4-1.9,2.9-3.7,3-6.2c0-2.3,0.2-4.7-0.2-7   c-0.6-3-3-5.2-4.7-7.7c-0.2-0.3-0.7-0.4-1-0.4c-0.7,0-1.5,0.2-2.2,0.3c-2.2,0.4-4.4,0.9-6.6,1.3c-1.8,0.3-2.9,1.4-3.1,3.3   c-0.2,1.8-0.3,3.6-1,5.3c-1.8,5-3.7,9.9-5.8,14.8c-1.2,2.8-2.1,5.7-1.6,8.7C117,135.2,118.8,140.1,121.8,144.5z M326.2,128.2   c-0.3-1.3-0.4-2.7-0.9-4c-1.6-4.3-3.4-8.5-5.1-12.8c-1.3-3.3-2.5-6.7-2.6-10.3c0-1.5-1.3-2.8-2.6-3.1c-2.9-0.5-5.7-0.9-8.6-1.6   c-1-0.2-1.5,0.1-2,0.8c-0.6,0.8-1.1,1.7-1.7,2.6c-0.8,1.4-1.8,2.7-2.4,4.1c-1,2.4-0.5,4.9-0.4,7.4c0,1.2,0.2,2.6,0.9,3.5   c1.7,2,3,4.2,4.2,6.5c1.1,2.1,2.5,4.1,3.5,6.3c1.2,2.7,1.3,5.7,1.4,8.6c0,1,0.2,1.6,1.1,2.1c1.5,0.9,3,1.9,4.4,2.9   c1.3,0.9,2.6,1.9,3.9,2.9c0.6,0.5,1.1,0.5,1.5-0.4c0.8-1.7,1.8-3.2,2.5-4.9C324.8,135.4,326,132,326.2,128.2z M113.9,156.3   c1-1.6,1.9-3.1,2.8-4.6c0.5-0.8,0.9-1.5,1.4-2.3c0.9-1.6,0.5-3.4,0.2-5c-0.3-1.8-0.9-3.6-1.4-5.4c-0.5-1.6-1.1-3.3-1.6-4.9   c-0.6-2.1-1-4.3-2.6-6.1c-1.2-1.3-2.2-2.8-4.1-3.2c-2.8-0.6-5.5-0.6-8.2,0.9c-2.3,1.3-4.1,2.9-4.8,5.6c-0.3,1.1-0.5,2.2-0.8,3.3   c-1,3.2-2.1,6.3-2.9,9.6c-0.4,1.9-0.7,4-0.3,5.8c0.5,2.1,1.6,4.2,2.7,6.1c1.3,2.2,2.8,4.2,4.2,6.2c3.1-1.7,6.1-3.5,9.1-5.1   C109.6,156.1,111.5,154,113.9,156.3z M137.2,143.1c-1.5,0.3-3.2,0.6-4.8,0.8c-5,0.8-9.2,3-12.4,7c-1.5,1.9-2.8,3.9-4.2,5.9   c-0.4,0.6-0.3,1.2,0.4,1.6c0.4,0.3,0.7,0.6,1.1,0.9c5.2,3.6,10.3,7.3,15.5,10.9c1.7,1.2,3.4,2.4,5.1,3.6c0.8,0.6,1.6,0.7,2.5,0   c1.7-1.3,3.6-2.5,5.3-3.7c0.3-0.3,0.6-0.8,0.6-1.3c-0.1-1.4-0.3-2.8-0.4-4.2c-0.2-1.7-0.3-3.5-0.5-5.2c-0.2-1.6-0.2-3.1,1.2-4.2   c0.6-0.5,0.7-1,0.4-1.8c-0.7-1.7-1.3-3.5-2-5.3C143.5,144.8,140.8,143.5,137.2,143.1z M326.1,156.3c-1.3-1.6-2.6-3.1-3.6-4.8   c-1.7-2.6-4.1-4.2-6.7-5.7c-2.6-1.5-5.4-2-8.3-2.4c-1.5-0.2-3.2-0.4-4.7,0c-3.2,0.7-4.9,2.9-6.2,5.8c-2.7,6.2-3.1,12.6-1.6,19.1   c0.3,1.4,0.7,3,2.1,4c3.2,2.3,3.3,2.4,5.9,0.6c0.1,0,0.1-0.1,0.2-0.1c5.6-4,11.2-8,16.8-12.1C322.1,159.3,324,157.8,326.1,156.3z    M198.3,174.2c-0.8-1.6-1.5-3.2-2.4-4.7c-0.1-0.3-0.5-0.6-0.8-0.6c-3-0.4-6-0.8-9-1.2c-2.1-0.3-4.2-0.5-6.3-0.8   c-2.7-0.4-5.5-0.7-8.2-1.2c-1.4-0.2-3.1,0.1-3.9-1.6c-0.4-1-0.8-1.9-1.2-2.9c-0.8-2-2.1-3.3-4.3-3.6c-1.3-0.2-2.6-0.4-3.9-0.5   c-2.7-0.1-5.3-0.3-8-0.2c-1.6,0.1-2.1,0.4-2,2.1c0.1,1.8,0.3,3.6,0.5,5.4c0.3,2.8,0.9,5.5,1.1,8.3c0.3,2.6,1.6,4.3,4.4,4.2   c1.6-0.1,3.2,0,4.8,0c4.1-0.1,8.3-0.2,12.4-0.2c7.3-0.1,14.7-0.2,22-0.2C195.6,176.4,197.2,175.9,198.3,174.2z M310.3,333.3   c1.1,0.9,2.1,1.7,3.1,2.5c2.1,1.7,4.3,2.4,7,1.6c1.7-0.6,3.6-0.9,5.4-1c3.6-0.4,7.1-1,10.5-2.5c1.6-0.7,3.3-1.3,4.3-2.9   c0.8-1.2,0.7-2.4,0.8-3.6c0.1-2.5-0.2-5-1.5-7.2c-1.6-2.7-3.6-5.2-5.5-7.8c-0.7-1-1.6-1.4-2.9-1.3c-2.7,0.1-5.4,0-8,0   c-0.4,0-0.8-0.1-1.2-0.2c-1.5-0.3-2.3-1.5-3.1-2.6c-0.5-0.7-0.9-1-1.7-0.6c-1.5,0.6-3,1.2-4.5,1.7c-0.9,0.2-0.9,0.5-0.7,1.3   c0.8,2.8,1.6,5.6,2.3,8.5c0.5,1.8,0.8,3.6,1.8,5.3c1.3,2.1,2.7,3.9,4.6,5.3c0.5,0.4,1.2,0.6,1.8,0.6c4.2,0.1,8.5,0,12.7,0   c0,0.1,0,0.3,0,0.4c-0.8,0-1.7-0.2-2.5,0c-3.3,0.8-6.6,0.9-9.9,0.4c-2-0.3-3.8-0.8-5.1-2.4c-0.9-1-1.8-2-2.7-3.1   C315.3,329.2,313.2,331.3,310.3,333.3z M129.4,311.2c-2.3-0.1-4.6-0.3-6.9-0.3c-4-0.1-8.1,0-12.1,0c-0.8,0-1.4,0.1-1.9,0.8   c-1.4,1.9-2.9,3.8-4.3,5.8c-0.9,1.3-1.8,2.6-2.5,4c-1.1,2.4-1.1,5.1-1,7.7c0.1,1.3,0.7,2.5,1.9,3.2c3.5,2.2,7.4,3.2,11.4,3.8   c2.1,0.3,4.1,0.5,6.2,1c2.9,0.7,5.7,1.3,8.2-1c1-1,2.2-1.8,3.4-2.8c-2.8-2-5.1-4.1-5.2-7.7c-0.3,0.3-0.4,0.4-0.5,0.5   c-1.4,1.4-2.6,3.1-4.2,4c-1.6,0.9-3.8,1.2-5.7,1.2c-3.1,0-6.3-0.4-9.4-0.7c-0.2,0-0.3-0.2-0.7-0.4c0.7,0,1.1,0,1.4,0   c3.9,0,7.8,0,11.6,0c0.5,0,1.1-0.1,1.5-0.3c2.9-1.9,4.6-4.8,6.2-7.8c0.1-0.2,0.1-0.4,0.1-0.6c0.2-1.1,0.4-2.2,0.6-3.3   C128.2,315.9,128.8,313.5,129.4,311.2z M344.7,164c0.2,0.1,0.4,0.4,0.7,0.5c2,1.1,4.1,2.2,6.1,3.3c3.2,1.8,6.5,3.6,9.7,5.4   c0.7,0.4,1.1,0.3,1.5-0.4c1.5-2.5,3-5.1,4.6-7.5c2.6-3.9,2.9-8.1,1.9-12.6c-0.4-1.8-0.9-3.7-1.1-5.5c-0.1-1-0.5-1.7-1.3-2.2   c-2.2-1.5-4.6-2.3-7.2-2.6c-1.5-0.2-3.2-0.1-4.5,0.8c-1.5,1.1-3,2.2-2.8,4.4c0.3,2.3-0.4,4.5-1.5,6.5   C348.9,157.4,346.8,160.6,344.7,164z M96.9,163.1c-1.3-2-2.7-3.8-3.9-5.7c-1.6-2.7-3.4-5.4-3.3-8.7c0-1.6-0.1-2.9-1.3-4.2   c-1.1-1.1-2.3-1.8-3.7-2c-3.4-0.3-6.6,0.7-9.5,2.6c-0.5,0.3-1,1-1.1,1.6c-0.5,1.9-0.7,3.9-1.1,5.9c-0.7,3-1.2,6.2,0,9.1   c0.9,2.4,2.4,4.6,3.7,6.8c0.8,1.5,1.7,2.9,2.5,4.4C85.2,169.5,91,166.4,96.9,163.1z M289.6,335.2c0.3,0.2,0.7,0.4,1,0.7   c2.6,1.8,5.4,3.6,7.9,5.5c2,1.5,2.8,4,3.6,6.3c0.6,1.4,1.2,2.7,2.7,3.4c1.2,0.6,2.5,1.2,3.7,1.9c-0.9,0.1-1.9,0.1-2.8-0.1   c-2.4-0.5-3.4-2.4-4.1-4.4c-1-2.9-3.2-4.9-5.4-6.6c-3.3-2.5-6.9-4.6-10.4-6.9c-1.9-1.2-3.9-1.9-6.2-1.4c0,0.6,0.1,1.3-0.1,1.9   c-0.4,1,0,1.4,0.8,1.8c0.3,0.1,0.5,0.3,0.8,0.5c2.5,1.9,5.1,3.8,7.6,5.7c0,0,0.1,0,0.1-0.1c-0.4-0.6-0.8-1.2-1.2-1.7   c1.2,1,2.4,2.1,3.4,3.2c0.3,0.3,0.4,0.7,0.6,1c1,2.5,1.5,5.1,1.4,7.7c0,0.9,0.3,1.5,1.1,1.7c1.3,0.4,2.6,0.9,3.8,0.9   c2.8,0,5.5-0.2,8.3-0.4c2.3-0.2,4.5-0.2,6.7-1.3c0.6-0.3,0.8-0.6,0.8-1.2c-0.1-1-0.2-2-0.2-3.1c0-2.7-0.6-5.4-1.4-8   c-1.1-3.5-3.7-5.3-7-6c-2.4-0.6-5-0.4-7.6-0.6C294.9,335.4,292.3,335.3,289.6,335.2z M162.3,333.4c-1.6-0.1-3.2-0.2-4.7,0.7   c-3.3,2.1-6.7,4-9.9,6.3c-3.3,2.4-6.2,5.1-7.8,9.1c-1.1,2.8-3.2,4-6.4,3.3c0,0,0-0.1,0-0.1c0.1-0.1,0.3-0.1,0.4-0.1   c2.7-1,5.1-2.1,6.1-5.3c0.7-2.1,1.6-4.2,3.3-5.8c1.2-1.1,2.5-2,3.8-2.9c1.7-1.2,3.5-2.3,5.4-3.6c-1.8,0.2-3.4,0.4-5,0.4   c-2.6,0.1-5.2,0.2-7.9,0.3c-2.6,0.1-5.1,0.7-7.1,2.4c-0.7,0.5-1.3,1.2-1.7,1.9c-2.3,4.1-2.5,8.7-2.6,13.3c0,0.3,0.2,0.8,0.4,0.9   c0.9,0.4,1.8,0.8,2.7,1c1.4,0.3,2.9,0.2,4.3,0.5c3.4,0.7,6.8,0.7,10.2,0.2c2.5-0.4,3.2-1,3.1-3.2c-0.1-1.3,0.2-2.7,0.4-4   c0.4-2.7,2.6-5.9,4.9-7.2c-0.3,0.5-0.6,1-1.1,1.7c3.2-2.4,6.2-4.5,9.1-6.7c0.2-0.1,0.3-0.5,0.3-0.7   C162.6,335.1,162.4,334.3,162.3,333.4z M288,266.7c0-0.2-0.1-0.3-0.1-0.5c-3.2,0-6.3,0-9.5,0c-1.4,0-2.9,0.3-4.3,0.2   c-3.3-0.2-6.5-0.5-9.8-0.7c-0.3,0-0.8,0.2-0.9,0.5c-0.9,1.4-1.9,2.5-3.6,2.9c-0.3,0.1-0.7,0.7-0.7,1.1c-0.1,4-0.2,8-0.3,11.9   c0,0.4,0,0.7,0,1.1c0,3.2,0,6.3,0,9.7C268.5,284.2,278.3,275.4,288,266.7z M355,289.8c0.2,0.5,0.4,1.1,0.7,1.6   c0.7,1.3,1.5,2.5,2.2,3.7c1,1.8,2.8,2.3,4.5,1.2c0.9-0.6,1.8-1,2.8-1.5c2.7-1.4,5.6-2.5,7.5-5c3.5-4.7,6.8-9.7,8.9-15.3   c0.3-0.7,0.5-1.5,0.4-2.2c-0.3-2-0.9-4-1.3-5.9C372,274.4,363.3,282.3,355,289.8z M316.5,306.4c0.1-0.1,0.1-0.2,0.2-0.3   c-4.4-7.2-8.8-14.4-13.3-21.7c-6.7,6.2-13.4,12.5-20.2,18.7c0.8,0,1.4-0.3,2.1-0.4c1.7-0.3,3.5-0.7,5.2-0.7c1.9,0,3.9,0.6,5.8,0.8   c2.6,0.3,5.1,0.7,7.5,1.8c2.9,1.4,5.9,2.1,9.1,1.6c0.5-0.1,1,0,1.5,0.1C315.2,306.2,315.9,306.3,316.5,306.4z M219.8,327.7   c6.1-5.5,12.2-11,18.3-16.4c0-0.1-0.1-0.2-0.1-0.3c-12.2,0-24.3,0-36.5,0c0,0.1-0.1,0.2-0.1,0.3   C207.6,316.8,213.7,322.2,219.8,327.7z M61,268.3c-0.3,1.1-0.5,2-0.8,2.9c-0.4,1.2-0.2,2.2,0.2,3.3c1.8,4.9,4.6,9.2,7.5,13.4   c0.9,1.3,1.8,2.7,3.1,3.5c3.3,2.1,6.9,3.9,10.3,5.8c0.5,0.3,1.1,0.4,1.6-0.4c1-1.8,2.1-3.5,3.2-5.2c0.1-0.2-0.1-0.7-0.3-0.9   c-1.2-1.1-2.5-2.2-3.7-3.3c-2.2-2-4.5-3.9-6.6-5.9c-4.3-3.9-8.6-7.9-12.9-11.9C62.1,269.2,61.6,268.8,61,268.3z M184.7,163.9   c0.3,0.2,0.5,0.4,0.7,0.4c3,0.4,5.9,0.9,8.9,1.2c2.3,0.3,4.3,0.8,5.2,3.4c0.5,1.5,1.7,2.7,2.6,4.1c3-6.7,6-13.2,9-19.7   c0.6-1.4,0.5-2-0.8-2.7c-1-0.6-2.1-0.9-3-1.6c-1-0.7-1.7-0.4-2.5,0.2c-5.1,3.8-10.3,7.6-15.5,11.4   C187.6,161.7,186.2,162.8,184.7,163.9z M334.1,241.6c2.1,0,4.2,0,6.4,0c0.9,0,1.2-0.4,1.1-1.2c-0.2-1.6-1.1-2.8-2.4-3.6   c-2.8-1.8-5.7-3.3-8.4-5.1c-2.1-1.5-4.3-2.5-6.9-2.6c-4.4-0.2-8.9-0.4-13.3-0.4c-0.8,0-1.6,0.6-2.3,1.1c-0.6,0.4-0.7,0.8,0,1.3   c3.4,2.2,6.8,4.5,10.2,6.7c1.5,1,2.9,2.1,4.5,2.8c1.6,0.6,3.3,0.9,5,1C330,241.7,332.1,241.6,334.1,241.6z M278.9,158.7   c0.3-2.5-0.1-4.7-1.3-6.8c-1.5-2.5-3.1-5-4.5-7.6c-1.5-2.9-2.9-5.9-4.4-8.8c-1.1-2.1-3.3-2.9-5.8-2.3c-1.2,0.3-2.3,0.9-3.1,2   c-1.6,2.2-2,4.7-1.8,7.3c0.1,1.8,0.8,3.2,2.5,4.3c3.5,2.2,6.7,4.8,10.1,7.1C273.4,155.6,275.7,157.7,278.9,158.7z M163.3,154.3   c0.9,0.3,1.6,0.3,2.1,0.7c0.8,0.7,1.4,0.2,2.1-0.2c4.8-3.4,9.5-6.7,14.4-10c1.5-1,2.5-2.2,2.1-4.1c-0.1-0.7,0-1.5-0.3-2.2   c-0.8-2.3-1.6-4.6-4.5-5.2c-2.7-0.6-4.2-0.2-5.7,2.1c-1.1,1.7-1.8,3.7-2.8,5.5c-1.9,3.5-3.9,6.9-5.8,10.3   C164.3,152.1,163.9,153.2,163.3,154.3z M377.9,167.2c-2.5,0.6-4.7,1.2-7,1.7c-3.4,0.6-5.6,2.8-7.4,5.7c7.4,4.2,14.6,8.2,21.9,12.4   C385.8,181.6,381.2,170,377.9,167.2z M56.5,185.7c7.4-4.1,14.4-8.1,21.8-12.2c-1.4-1.2-2.7-2.4-4-3.4c-0.6-0.5-1.4-0.7-2.2-1   c-2.1-0.6-4.3-0.9-6.3-1.7c-1.3-0.5-1.8-0.2-2.5,0.9c-2.7,4.1-4.7,8.5-6.1,13.2C56.8,182.7,56.7,184.1,56.5,185.7z M293.6,169.7   c-2.9-6.1-2.6-12.5-2.6-18.9c-1.4,0-2.8-0.3-3.9,0.1c-1.3,0.5-2-0.1-2.9-0.7c-2.2-1.7-4.7-3.1-6.5-5.5c-1.7-2.2-3.9-3.9-5.9-5.8   c-0.1-0.1-0.2-0.2-0.5-0.4c0.1,0.3,0.1,0.5,0.2,0.6c1.9,3.3,3.8,6.7,5.9,9.9c1.7,2.7,3.5,5.3,3.3,8.6c-0.1,1.9,0,1.9,1.8,2.6   c1.5,0.6,2.6,1.5,3,3.2c0.1,0.3,0.2,0.7,0.5,0.9C288.4,166.2,290.9,167.9,293.6,169.7z M292.6,157.4c0.1,0,0.1,0,0.2,0   c0.4-1.7,0.6-3.5,1.1-5.1c0.8-2.6,1.4-5.5,3.6-7.3c1.8-1.4,3.9-2.3,5.9-3.4c0.3-0.1,0.7-0.1,1.1,0c1.3,0.3,2.7,0.7,4,0.9   c3.8,0.6,7.3,1.8,10.4,4c0.6,0.4,1.3,0.8,1.9,1.2c0.1-0.1,0.1-0.2,0.2-0.2c-1-0.9-2-2-3.1-2.8c-2.8-1.8-5.3-4.1-8.8-4.8   c-5-1-9.6-0.2-13.8,2.9c-1.4,1-2.8,2.2-2.7,4.3C292.7,150.5,292.6,153.9,292.6,157.4z M149.1,153.9c0.1-0.1,0.2-0.2,0.3-0.3   c0-2.2,0.1-4.3,0-6.5c-0.1-1-0.3-2.2-0.9-2.8c-1.5-1.6-3.3-2.9-5.4-3.7c-4-1.5-8.1-1.7-12-0.1c-2.2,0.9-4.1,2.3-6.1,3.7   c-1.4,1-2.6,2.2-3.9,3.2c0.1,0.1,0.2,0.2,0.2,0.3c0.2-0.1,0.3-0.2,0.5-0.3c1.9-1.1,3.7-2.6,5.7-3.3c2.9-1,6-1.4,9-2.3   c1.5-0.5,2.7-0.3,3.9,0.3c2.4,1.2,4.9,2.4,6,5.2c0.8,1.9,1.4,3.8,2.1,5.7C148.6,153.5,148.9,153.7,149.1,153.9z M161.9,154   c3.1-5.2,6.2-10.3,9.2-15.4c-0.1-0.1-0.2-0.2-0.3-0.2c-1.4,1.5-2.8,3-4.4,4.4c-2.1,1.9-3.7,4.4-6.3,5.8c-1.8,0.9-2.9,3.3-5.5,2.3   c-1-0.4-2.3-0.1-3.5-0.1c0,0.9,0,1.7,0,2.6C154.8,153.6,158.4,153.8,161.9,154z M313.8,320.3c-0.1,0-0.2,0.1-0.4,0.1   c-0.6,1.1-1.2,2.2-1.8,3.3c-0.7,1.1-1.4,2.2-2.3,3.1c-1.7,1.8-3.8,3.2-6.2,4.1c-0.8,0.3-1.7,0.5-2.6,0.8c-1.2,0.3-2.3,0.6-3.5,1   c-1.1,0.3-2.2,0.6-3.3,0.9c0,0.2,0.1,0.4,0.1,0.6c2.8,0,5.6,0,8.3,0c4.4-0.1,8-1.9,10.8-5.3c0.4-0.5,0.8-1.3,0.8-2   C313.8,324.7,313.8,322.5,313.8,320.3z M148.3,333.9c0-0.1,0.1-0.3,0.1-0.4c-1.3-0.3-2.7-0.5-4-0.9c-1.6-0.5-3.1-1.3-4.6-1.6   c-2.9-0.7-5.2-2.3-7.1-4.4c-1.6-1.9-2.8-4.1-4.1-6.1c-0.1,1.2-0.5,2.6-0.4,4c0.1,1.4,0.4,2.8,1,4c0.4,0.9,1.2,1.5,2,2.2   c2.7,2.5,5.9,3.5,9.5,3.4c1.4,0,2.8-0.2,4.3-0.2C146,333.9,147.1,333.9,148.3,333.9z M81.5,300.6c-0.2-0.6-0.1-1.3-0.4-1.6   c-1.5-1-3-1.9-4.6-2.8c-4.7-2.7-8.7-6.1-11.6-10.8c-1-1.6-2-3.2-3.1-5c0.3,3.1,1.1,5.8,2.7,8.3c2.3,3.4,5.2,6.4,8.4,9   C75.2,299.6,78,300.7,81.5,300.6z M83.5,299.5c-0.1,0.2-0.3,0.5-0.3,0.7c-0.2,2-0.4,4-0.4,6.1c0,0.9,0.3,1.9,0.8,2.6   c1.1,1.4,2.3,2.7,3.7,3.7c1.9,1.4,3.7,3.2,6.3,3.5c2,0.3,4.1,0.5,6.1,0.8c0-0.2,0.1-0.3,0.1-0.5c-0.5-1.2-1.4-1.8-2.6-2.2   c-0.9-0.3-1.8-0.3-2.6-0.7c-2.4-1.3-4.7-2.7-7-4.1c-0.6-0.4-1.3-1.2-1.5-1.9c-0.2-1.1-0.6-2.1-1.3-2.9   C83.7,303.1,83.7,301.3,83.5,299.5z M364.3,300.1c7.5-2.1,16.9-14.3,15.7-19.5c-5.9,9.7-6,10.7-17.4,17.6   C363.2,298.8,363.7,299.4,364.3,300.1z M248.6,159.6c0-0.1,0.1-0.2,0.1-0.4c-3.6-2.6-7.3-5.3-10.9-7.9c-0.7,2.8-1.3,5.4-2,8.3   C240.3,159.6,244.4,159.6,248.6,159.6z M355,295.7c0.3-1.3-0.7-2.1-1.2-3.1c-0.6-0.9-1.2-0.9-1.8-0.2c-0.6,0.8-1.2,0.7-2,0.3   c-2.1-1.4-4.2-2.7-6.2-4.1c-1.5-1-2.8-2.3-4.2-3.4c-0.7-0.5-1.5-1-2.3-1.6c0,0.3,0,0.4,0,0.5c2.2,3.2,4.4,6.4,6.7,9.5   c0.2,0.2,0.6,0.4,0.9,0.4C348.2,294.7,351.5,295.2,355,295.7z M129.8,278.5c-1.5,3.9-3,7.8-4.6,11.7c2,0,4,0,6,0   c-0.1-0.6-0.3-1.2-0.2-1.8c0.4-2.3,0.8-4.6,1.2-6.9c0.1-0.4,0-0.9-0.2-1.1C131.4,279.7,130.6,279.2,129.8,278.5z M284.9,248.6   c-0.4-0.8-0.8-1.4-0.9-2c-0.2-1-0.8-1.4-1.8-1.6c-2-0.4-4-1-6.2-1.6c-0.9,1.5-1.9,3.4-2.9,5.1C277.1,248.6,280.9,248.6,284.9,248.6   z M328,128.7c0.2-0.4,0.3-0.5,0.4-0.7c1-1.5,2.1-3.1,3.9-3.9c2.5-1.1,5-0.7,7.6-0.7c0.2,0,0.5,0.3,0.7,0.5c1.1,0.7,2.1,1.4,3.2,2.1   c0-0.4-0.2-0.7-0.4-0.8c-2.3-1.7-4.6-3.4-6.9-5.1c-0.8-0.6-1.5-0.5-2.3-0.1c-2.1,1.1-4,2.5-5.6,4.3c-0.4,0.4-0.9,0.9-0.9,1.4   C327.6,126.6,327.9,127.5,328,128.7z M98,125.6c0.1,0.1,0.2,0.3,0.3,0.4c0.8-0.6,1.7-1,2.5-1.7c0.9-0.8,1.8-1.1,3-1   c0.9,0.1,1.8,0,2.6,0c2,0.1,3.9,0.6,5.3,2.2c0.8,1,1.6,2,2.4,3c0.1-1,0.2-1.8,0.3-2.7c0-0.2,0-0.5-0.1-0.6c-2-2.2-4.1-4.3-6.9-5.4   c-0.5-0.2-1.3-0.1-1.7,0.2c-1.3,0.8-2.6,1.7-3.9,2.6C100.6,123.6,99.3,124.6,98,125.6z M342.2,316.5c5.7,0.8,10.2-1.5,14.3-5.2   c-1.5,0-2.9,0-4.2,0c-0.4,0-0.9,0.1-1.2,0.3c-1.9,1.4-4.1,2.1-6.3,2.6C343.6,314.5,342.6,315.2,342.2,316.5z M93.2,310.8   c-0.1,0.1-0.1,0.1-0.2,0.2c3.2,1.6,6.3,3.1,9.4,4.6c1.3-1.6,2.6-3.1,4-4.8C102,310.8,97.6,310.8,93.2,310.8z M316.3,241.4   c-3.7-2.8-7.2-5.4-10.7-8.1c-0.1,0.1-0.2,0.2-0.2,0.2c3.6,2.9,4.9,7.3,7.4,11C313.9,243.5,314.9,242.6,316.3,241.4z M336.1,311.4   c1.2,1.5,2.3,2.9,3.4,4.3c2.8-1.4,5.6-2.7,8.4-4.1c0-0.1-0.1-0.1-0.1-0.2C344,311.4,340.1,311.4,336.1,311.4z"
   id="path1"
   style="fill:#822397;fill-opacity:1" />
	<path
   d="M173.2,249.7c0,11.7,0,23,0,34.4c-0.5,0-0.8,0.1-1.2,0.1c-3.8,0-7.5,0-11.3,0c-1.3,0-1.4-0.2-1.3-1.5   c0.3-3.4,0.6-6.8,1-10.2c0.3-2.8,0.8-5.7,1.2-8.5c0.3-2.3,0.5-4.5,0.8-6.8c0.2-2.2,0.5-4.5,0.8-6.7c0-0.3,0.6-0.6,0.9-0.6   C167.1,249.7,170.2,249.7,173.2,249.7z M169.8,256.5c-0.1,0-0.3,0.1-0.4,0.1c-0.2,1.7-0.4,3.4-0.5,5.1c-0.2,1.8-0.4,3.7-0.7,5.5   c-0.3,2.1-0.5,4.1-0.8,6.2c-0.2,1.8-0.4,3.6-0.7,5.4c-0.1,1,0.5,1.9,1.4,2c0.6,0.1,1.3,0,1.9,0c-0.1-1.1-0.2-2-0.2-2.9   c0-2.3,0.2-4.5,0.2-6.8c0-2.9,0-5.8,0-8.7c0-1.7,0.2-3.3,0.2-5C170.3,257.2,170,256.8,169.8,256.5z"
   id="path2"
   style="fill:#822397;fill-opacity:1" />
	<path
   d="M135.2,98.5c-0.6,0.7-1.1,1.5-1.7,2.1c-0.6,0.8-1.3,1.5-2,2.2c-0.9,0.9-1.2,2.1-1.3,3.3c-0.1,2.7-0.3,5.3-0.2,8   c0.1,2.1-1.2,3.6-1.9,5.4c-1.6,4-3.3,7.9-4.8,11.9c-0.3,0.8,0,1.7-0.2,2.6c-0.5-1.1-0.6-2.3-0.2-3.4c0.6-1.7,1.4-3.2,2.2-4.8   c1.9-4.1,3.4-8.4,4.1-12.8c0.4-2.5,0.2-5.2,0-7.8c-0.1-1.3,0.4-2.2,1.3-3c1.4-1.3,2.9-2.6,4.4-3.9C135,98.4,135.1,98.5,135.2,98.5z   "
   id="path3"
   style="fill:#822397;fill-opacity:1" />
	<path
   d="M318.7,134.3c0.6-2.7-0.9-4.7-1.8-7c-1.4-3.6-3-7.2-4.5-10.7c-0.2-0.6-0.3-1.2-0.3-1.8c-0.1-2.8-0.2-5.7-0.3-8.5   c-0.1-2.1-1.4-3.4-2.6-4.9c-0.8-0.9-1.6-1.8-2.4-2.7c0.1-0.1,0.2-0.2,0.3-0.3c1.8,1.7,3.5,3.5,5.3,5.3c0.2,0.2,0.3,0.7,0.3,1.1   c0,2.2-0.2,4.4,0.1,6.6c0.3,2.6,0.7,5.2,1.5,7.6c1.1,3.4,2.7,6.7,4.1,10c0.7,1.6,1,3.2,0.8,4.9c0,0.1-0.1,0.3-0.2,0.4   C319,134.2,318.9,134.2,318.7,134.3z"
   id="path4"
   style="fill:#822397;fill-opacity:1" />
	<path
   d="M365,146.6c-0.5,2-1,3.6-1.2,5.2c-0.3,2.8-0.5,5.7-0.5,8.5c0,1.8,0.3,3.7,0.2,5.5c-0.2-1.5-0.4-3-0.4-4.5   c-0.1-3.3-0.1-6.5-0.3-9.8c0-1-0.3-2.1-0.5-3.1c-0.1-0.2-0.6-0.5-0.9-0.4c-2.2,0.2-3.5-1.5-5.2-2.5c-0.1-0.1-0.1-0.5-0.1-0.9   c1.6,0.7,2.9,1.6,4.4,1.9C362.1,146.8,363.7,146.6,365,146.6z"
   id="path5"
   style="fill:#822397;fill-opacity:1" />
	<path
   d="M78.3,165.9c0.7-6.4,0.5-12.7-1.3-19.2c0.4-0.5,1.3-0.2,2-0.1c1.9,0.2,3.6-0.1,5.1-1.3c0.4-0.3,0.9-0.5,1.4-0.7   c0.1,0.1,0.2,0.2,0.3,0.3c-0.2,0.3-0.3,0.6-0.6,0.8c-1.5,1.2-3,2.5-5.1,2.3c-0.2,0-0.6,0.3-0.6,0.6c-0.2,1.4-0.4,2.9-0.5,4.3   c-0.2,3.9-0.3,7.8-0.5,11.8C78.6,165.1,78.4,165.5,78.3,165.9z"
   id="path6"
   style="fill:#822397;fill-opacity:1" />
</g>
</svg>
